<?xml version="1.0"?>
<svg xmlns="http://www.w3.org/2000/svg" xmlns:xlink="http://www.w3.org/1999/xlink" version="1.1" id="Capa_1" x="0px" y="0px" viewBox="0 0 496 496" style="enable-background:new 0 0 496 496;" xml:space="preserve" width="512px" height="512px" class=""><g><g>
	<circle style="fill:#FFD600" cx="128" cy="184" r="64" data-original="#F0BC5E" class="active-path" data-old_color="#F0BC5E"/>
	<circle style="fill:#FFD600" cx="240" cy="48" r="48" data-original="#F0BC5E" class="active-path" data-old_color="#F0BC5E"/>
	<circle style="fill:#FFD600" cx="360" cy="144" r="48" data-original="#F0BC5E" class="active-path" data-old_color="#F0BC5E"/>
	<circle style="fill:#FFD600" cx="448" cy="48" r="48" data-original="#F0BC5E" class="active-path" data-old_color="#F0BC5E"/>
	<polygon style="fill:#FFD600" points="448,304 400,304 400,488 416,488 432,488 448,488  " data-original="#F0BC5E" class="active-path" data-old_color="#F0BC5E"/>
	<polygon style="fill:#FFD600" points="384,336 336,336 336,488 352,488 368,488 384,488  " data-original="#F0BC5E" class="active-path" data-old_color="#F0BC5E"/>
	<polygon style="fill:#FFD600" points="320,368 272,368 272,488 288,488 304,488 320,488  " data-original="#F0BC5E" class="active-path" data-old_color="#F0BC5E"/>
	<polygon style="fill:#FFD600" points="256,400 208,400 208,488 224,488 240,488 256,488  " data-original="#F0BC5E" class="active-path" data-old_color="#F0BC5E"/>
</g><path d="M423.008,168.064l1.984,15.872l44.056-5.504l-7.536,9.152c-59.048,71.704-136.568,125.952-224.168,156.864l5.328,15.096  c90.336-31.888,170.288-87.832,231.184-161.784l6.144-7.456V232h16v-73.064L423.008,168.064z" data-original="#000000" class="" data-old_color="#000000" style="fill:#FFFFFF"/><path d="M128,104c8.16,0,16.216,1.232,23.968,3.664L156.76,92.4C147.456,89.48,137.784,88,128,88c-52.936,0-96,43.064-96,96  s43.064,96,96,96s96-43.064,96-96c0-17.76-4.984-35.2-14.408-50.416l-13.6,8.424C203.848,154.696,208,169.216,208,184  c0,44.112-35.888,80-80,80s-80-35.888-80-80S83.888,104,128,104z" data-original="#000000" class="" data-old_color="#000000" style="fill:#FFFFFF"/><path d="M184,344v-16h-16v-22.488C219.032,288.664,256,240.6,256,184c0-28.584-9.328-55.696-26.96-78.4l-12.632,9.824  C231.84,135.288,240,159,240,184c0,61.76-50.24,112-112,112S16,245.76,16,184S66.24,72,128,72c14.072,0,27.936,2.672,41.216,7.936  l5.896-14.872C159.952,59.048,144.096,56,128,56C57.424,56,0,113.424,0,184c0,56.6,36.968,104.664,88,121.512V328H72v16h16v112  c0,22.056,17.944,40,40,40s40-17.944,40-40V344H184z M104,309.664c7.784,1.488,15.792,2.336,24,2.336s16.216-0.848,24-2.336V328h-48  V309.664z M152,456c0,13.232-10.768,24-24,24s-24-10.768-24-24V344h48V456z" data-original="#000000" class="" data-old_color="#000000" style="fill:#FFFFFF"/><path d="M151.88,142.416C144.832,138.36,136.696,136,128,136c-26.472,0-48,21.528-48,48s21.528,48,48,48s48-21.528,48-48  c0-12.008-4.464-22.976-11.776-31.4l62.32-75.672C230.648,78.848,235.176,80,240,80c7.184,0,13.752-2.464,19.096-6.48l71.76,57.408  c-1.8,4-2.856,8.408-2.856,13.072c0,17.648,14.352,32,32,32s32-14.352,32-32c0-6.344-1.912-12.224-5.104-17.208l46.752-50.352  C437.984,78.64,442.816,80,448,80c17.648,0,32-14.352,32-32s-14.352-32-32-32s-32,14.352-32,32c0,6.656,2.048,12.84,5.544,17.96  l-46.432,50c-4.528-2.44-9.616-3.96-15.112-3.96c-7.184,0-13.752,2.464-19.096,6.48l-71.76-57.408c1.8-4,2.856-8.408,2.856-13.072  c0-17.648-14.352-32-32-32s-32,14.352-32,32c0,7.024,2.344,13.472,6.192,18.752L151.88,142.416z M128,216c-17.648,0-32-14.352-32-32  s14.352-32,32-32s32,14.352,32,32S145.648,216,128,216z M448,32c8.824,0,16,7.176,16,16s-7.176,16-16,16s-16-7.176-16-16  S439.176,32,448,32z M376,144c0,8.824-7.176,16-16,16s-16-7.176-16-16s7.176-16,16-16S376,135.176,376,144z M240,32  c8.824,0,16,7.176,16,16s-7.176,16-16,16s-16-7.176-16-16S231.176,32,240,32z" data-original="#000000" class="" data-old_color="#000000" style="fill:#FFFFFF"/><rect x="176" y="480" width="304" height="16" data-original="#000000" class="" data-old_color="#000000" style="fill:#FFFFFF"/></g> </svg>
