<?xml version="1.0"?>
<svg xmlns="http://www.w3.org/2000/svg" xmlns:xlink="http://www.w3.org/1999/xlink" version="1.1" id="Capa_1" x="0px" y="0px" viewBox="0 0 496 496" style="enable-background:new 0 0 496 496;" xml:space="preserve" width="512px" height="512px" class=""><g><g>
	<polygon style="fill:#FFD600" points="224,80 176,80 176,248 192,248 208,248 224,248  " data-original="#F0BC5E" class="active-path" data-old_color="#F0BC5E"/>
	<polygon style="fill:#FFD600" points="288,112 240,112 240,248 256,248 272,248 288,248  " data-original="#F0BC5E" class="active-path" data-old_color="#F0BC5E"/>
	<polygon style="fill:#FFD600" points="352,32 304,32 304,248 320,248 336,248 352,248  " data-original="#F0BC5E" class="active-path" data-old_color="#F0BC5E"/>
	<polygon style="fill:#FFD600" points="416,64 368,64 368,248 384,248 400,248 416,248  " data-original="#F0BC5E" class="active-path" data-old_color="#F0BC5E"/>
</g><path d="M96,0v288H24c-13.232,0-24,10.768-24,24s10.768,24,24,24h0.76l12.4,123.984C39.208,480.512,56.328,496,76.96,496h198.08  c19.248,0,35.256-13.536,39.024-32h97.256L496,379.312V0H96z M112,16h368v352h-80v80h-83.96l11.2-112H328c13.232,0,24-10.768,24-24  s-10.768-24-24-24H207.792c-7.312-9.656-18.784-16-31.792-16s-24.488,6.344-31.792,16H112V16z M468.688,384L416,436.688V384H468.688  z M142.736,334.16c2.936,4.392,6.712,8.168,11.104,11.104l-68.432,68.432C83.944,415.168,81.92,416,79.856,416  C75.52,416,72,412.48,72,408.152c0-2.104,0.816-4.072,2.304-5.552L142.736,334.16z M152,312c0-13.232,10.768-24,24-24  s24,10.768,24,24s-10.768,24-24,24S152,325.232,152,312z M209.264,334.16l68.44,68.44c1.48,1.48,2.296,3.448,2.296,5.552  c0,4.328-3.52,7.848-7.856,7.848c-2.064,0-4.088-0.832-5.552-2.296l-68.44-68.44C202.552,342.328,206.328,338.552,209.264,334.16z   M215.424,317.696c0.272-1.88,0.576-3.744,0.576-5.696c0-2.736-0.28-5.416-0.808-8H328c4.408,0,8,3.584,8,8s-3.592,8-8,8H217.728  L215.424,317.696z M16,312c0-4.416,3.592-8,8-8h112.808c-0.528,2.584-0.808,5.264-0.808,8c0,1.952,0.304,3.816,0.576,5.696  L134.272,320H24C19.592,320,16,316.416,16,312z M298.92,458.392C297.688,470.712,287.424,480,275.04,480H76.96  c-12.384,0-22.656-9.288-23.88-21.608L40.84,336h77.432l-55.28,55.272C58.488,395.784,56,401.776,56,408.152  C56,421.296,66.704,432,79.856,432c6.368,0,12.352-2.48,16.864-6.984l73.592-73.592c1.872,0.272,3.736,0.576,5.688,0.576  s3.816-0.304,5.688-0.576l73.592,73.6c4.512,4.496,10.496,6.976,16.864,6.976C285.296,432,296,421.296,296,408.152  c0-6.376-2.488-12.368-6.992-16.864L233.728,336h77.432L298.92,458.392z" data-original="#000000" class="" data-old_color="#000000" style="fill:#FFFFFF"/><rect x="160" y="240" width="272" height="16" data-original="#000000" class="" data-old_color="#000000" style="fill:#FFFFFF"/><rect x="72" y="448" width="80" height="16" data-original="#000000" class="" data-old_color="#000000" style="fill:#FFFFFF"/><rect x="128" y="240" width="16" height="16" data-original="#000000" class="" data-old_color="#000000" style="fill:#FFFFFF"/><rect x="448" y="240" width="16" height="16" data-original="#000000" class="" data-old_color="#000000" style="fill:#FFFFFF"/><rect x="168" y="448" width="16" height="16" data-original="#000000" class="" data-old_color="#000000" style="fill:#FFFFFF"/></g> </svg>
