<svg height="464pt" viewBox="0 -36 464 464" width="464pt" xmlns="http://www.w3.org/2000/svg"><path d="m216 0h-152c-35.347656 0-64 28.652344-64 64v96c0 35.347656 28.652344 64 64 64h16v72l72-72h32v-80c0-35.347656 28.652344-64 64-64h32v-16c0-35.347656-28.652344-64-64-64zm0 0" fill="#006df0"/><path d="m104 240v32l-24 24v-72h-16c-35.347656 0-64-28.652344-64-64v-96c0-35.347656 28.652344-64 64-64h24c-35.347656 0-64 28.652344-64 64v96c0 35.347656 28.652344 64 64 64 8.835938 0 16 7.164062 16 16zm0 0" fill="#005ece"/><path d="m400 80h-152c-35.347656 0-64 28.652344-64 64v96c0 35.347656 28.652344 64 64 64h48l88 88v-88h16c35.347656 0 64-28.652344 64-64v-96c0-35.347656-28.652344-64-64-64zm0 0" fill="#ffcd00"/><path d="m208 240c0 35.347656 28.652344 64 64 64h-24c-35.347656 0-64-28.652344-64-64v-96c0-35.347656 28.652344-64 64-64h24c-35.347656 0-64 28.652344-64 64zm0 0" fill="#ebbf00"/><path d="m384 368v24l-88-88h17.375c4.242188 0 8.3125 1.6875 11.3125 4.6875zm0 0" fill="#ebbf00"/><g fill="#f1f2f2"><path d="m416 136h-184c-4.417969 0-8 3.582031-8 8s3.582031 8 8 8h184c4.417969 0 8-3.582031 8-8s-3.582031-8-8-8zm0 0"/><path d="m416 184h-184c-4.417969 0-8 3.582031-8 8s3.582031 8 8 8h184c4.417969 0 8-3.582031 8-8s-3.582031-8-8-8zm0 0"/><path d="m416 232h-184c-4.417969 0-8 3.582031-8 8s3.582031 8 8 8h184c4.417969 0 8-3.582031 8-8s-3.582031-8-8-8zm0 0"/><path d="m48 72h168c4.417969 0 8-3.582031 8-8s-3.582031-8-8-8h-168c-4.417969 0-8 3.582031-8 8s3.582031 8 8 8zm0 0"/><path d="m168 104h-120c-4.417969 0-8 3.582031-8 8s3.582031 8 8 8h120c4.417969 0 8-3.582031 8-8s-3.582031-8-8-8zm0 0"/><path d="m160 152h-112c-4.417969 0-8 3.582031-8 8s3.582031 8 8 8h112c4.417969 0 8-3.582031 8-8s-3.582031-8-8-8zm0 0"/></g></svg>