<?xml version="1.0"?>
<svg xmlns="http://www.w3.org/2000/svg" xmlns:xlink="http://www.w3.org/1999/xlink" version="1.1" id="Capa_1" x="0px" y="0px" viewBox="0 0 496 496" style="enable-background:new 0 0 496 496;" xml:space="preserve" width="512px" height="512px" class=""><g><path style="fill:#FFD600" d="M260.96,217.384c-2.024-7.616-5.016-14.824-8.888-21.488l8.784-18.128l-22.624-22.624l-18.128,8.784  c-6.656-3.872-13.864-6.864-21.488-8.888L192,136h-32l-6.616,19.04c-7.616,2.024-14.824,5.016-21.488,8.888l-18.128-8.784  l-22.624,22.624l8.784,18.128c-3.872,6.656-6.864,13.864-8.888,21.488L72,224v32l19.04,6.616c2.024,7.616,5.016,14.824,8.888,21.488  l-8.784,18.128l22.624,22.624l18.128-8.784c6.656,3.872,13.864,6.864,21.488,8.888L160,344h32l6.616-19.04  c7.616-2.024,14.824-5.016,21.488-8.888l18.128,8.784l22.624-22.624l-8.784-18.128c3.872-6.664,6.864-13.864,8.888-21.488L280,256  v-32L260.96,217.384z M176,296c-30.928,0-56-25.072-56-56s25.072-56,56-56s56,25.072,56,56S206.928,296,176,296z" data-original="#F0BC5E" class="" data-old_color="#F0BC5E"/><path d="M312,48h-40V32h-50.736C214.576,13.12,196.488,0,176,0s-38.576,13.12-45.264,32H80v16H40C17.944,48,0,65.944,0,88v368  c0,22.056,17.944,40,40,40h272c22.056,0,40-17.944,40-40V88C352,65.944,334.056,48,312,48z M272,112V96h32v352H48V96h32v16H272z   M96,48h47.344l1.304-6.408C147.656,26.768,160.84,16,176,16s28.344,10.768,31.352,25.592L208.656,48H256v48H96V48z M336,456  c0,13.232-10.768,24-24,24H40c-13.232,0-24-10.768-24-24V88c0-13.232,10.768-24,24-24h40v16H32v384h288V80h-48V64h40  c13.232,0,24,10.768,24,24V456z" data-original="#000000" class="active-path" style="fill:#009BFA" data-old_color="#000000"/><path d="M176,304c15.624,0,30.664-5.688,42.352-16.024l-10.592-11.984C199,283.736,187.72,288,176,288c-26.472,0-48-21.528-48-48  s21.528-48,48-48s48,21.528,48,48c0,10.432-3.28,20.336-9.496,28.664l12.824,9.56C235.616,267.128,240,253.896,240,240  c0-35.288-28.712-64-64-64s-64,28.712-64,64S140.712,304,176,304z" data-original="#000000" class="active-path" style="fill:#009BFA" data-old_color="#000000"/><rect x="72" y="416" width="176" height="16" data-original="#000000" class="active-path" style="fill:#009BFA" data-old_color="#000000"/><rect x="72" y="384" width="208" height="16" data-original="#000000" class="active-path" style="fill:#009BFA" data-old_color="#000000"/><path d="M472,128c-2.816,0-5.488,0.576-8,1.472V120c0-22.056-17.944-40-40-40s-40,17.944-40,40v305.456l21.696,57.856  C408.536,490.896,415.896,496,424,496s15.464-5.104,18.304-12.68L464,425.456V286.528c2.512,0.896,5.184,1.472,8,1.472  c13.232,0,24-10.768,24-24V152C496,138.768,485.232,128,472,128z M472,144c4.408,0,8,3.584,8,8v8h-16v-8  C464,147.584,467.592,144,472,144z M448,416h-16V224h-16v192h-16V192h16v16h16v-16h16v72V416z M400,176v-16h48v16H400z M424,96  c13.232,0,24,10.768,24,24v24h-48v-24C400,106.768,410.768,96,424,96z M427.32,477.704c-1.032,2.752-5.6,2.76-6.632-0.008  L403.544,432h40.912L427.32,477.704z M472,272c-4.408,0-8-3.584-8-8v-88h16v88C480,268.416,476.408,272,472,272z" data-original="#000000" class="active-path" style="fill:#009BFA" data-old_color="#000000"/><rect x="264" y="416" width="16" height="16" data-original="#000000" class="active-path" style="fill:#009BFA" data-old_color="#000000"/></g> </svg>
