<?xml version="1.0"?>
<svg xmlns="http://www.w3.org/2000/svg" xmlns:xlink="http://www.w3.org/1999/xlink" version="1.1" id="Capa_1" x="0px" y="0px" viewBox="0 0 496 496" style="enable-background:new 0 0 496 496;" xml:space="preserve" width="512px" height="512px" class=""><g><circle style="fill:#FFD600" cx="248" cy="248" r="88" data-original="#F0BC5E" class="active-path" data-old_color="#F0BC5E"/><path d="M248,256c4.408,0,8,3.584,8,8s-3.592,8-8,8s-8-3.584-8-8h-16c0,10.416,6.712,19.216,16,22.528V304h16v-17.472  c9.288-3.312,16-12.112,16-22.528c0-13.232-10.768-24-24-24c-4.408,0-8-3.584-8-8s3.592-8,8-8c4.408,0,8,3.584,8,8h16  c0-10.416-6.712-19.216-16-22.528V192h-16v17.472c-9.288,3.312-16,12.112-16,22.528C224,245.232,234.768,256,248,256z" data-original="#000000" class="" data-old_color="#000000" style="fill:#009BFA"/><path d="M496,128h-24v-8c0-13.232-10.768-24-24-24c-6.168,0-11.744,2.408-16,6.24c-4.256-3.84-9.832-6.24-16-6.24  s-11.744,2.408-16,6.24c-4.256-3.84-9.832-6.24-16-6.24s-11.744,2.408-16,6.24c-4.256-3.84-9.832-6.24-16-6.24  c-13.232,0-24,10.768-24,24v8H208v-10.744c0-10.688-4.16-20.736-11.712-28.288L184,76.688V0H64v76.688l-20.288,20.28  C36.16,104.52,32,114.568,32,125.256V128H0v240h64v8c0,13.232,10.768,24,24,24c6.168,0,11.744-2.408,16-6.24  c4.256,3.84,9.832,6.24,16,6.24s11.744-2.408,16-6.24c4.256,3.84,9.832,6.24,16,6.24s11.744-2.408,16-6.24  c4.256,3.84,9.832,6.24,16,6.24c13.232,0,24-10.768,24-24v-8h88v2.744c0,10.688,4.16,20.736,11.712,28.288L328,419.312V496h120  v-76.688l12.288-12.28c7.552-7.552,11.712-17.6,11.712-28.288V368h24V128z M448,112c4.408,0,8,3.584,8,8v8h-16v-8  C440,115.584,443.592,112,448,112z M416,112c4.408,0,8,3.584,8,8v8h-16v-8C408,115.584,411.592,112,416,112z M384,112  c4.408,0,8,3.584,8,8v8h-16v-8C376,115.584,379.592,112,384,112z M344,120c0-4.416,3.592-8,8-8s8,3.584,8,8v8h-16V120z M48,125.256  c0-6.416,2.496-12.448,7.024-16.976L80,83.312V16h88v67.312l16.976,16.968c4.528,4.536,7.024,10.56,7.024,16.976V128h-80v-8H96v16  c0,13.232-10.768,24-24,24h-8v72c0,4.416-3.592,8-8,8s-8-3.584-8-8V125.256z M88,384c-4.408,0-8-3.584-8-8v-8h16v8  C96,380.416,92.408,384,88,384z M120,384c-4.408,0-8-3.584-8-8v-8h16v8C128,380.416,124.408,384,120,384z M152,384  c-4.408,0-8-3.584-8-8v-8h16v8C160,380.416,156.408,384,152,384z M192,376c0,4.416-3.592,8-8,8s-8-3.584-8-8v-8h16V376z   M456,378.744c0,6.416-2.496,12.448-7.024,16.976L432,412.688V480h-88v-67.312l-24.976-24.968  c-4.528-4.536-7.024-10.56-7.024-16.976V264c0-4.416,3.592-8,8-8s8,3.584,8,8v72h8c13.232,0,24,10.768,24,24v16h16v-8h80V378.744z   M480,352H375.12c-3.2-15.64-15.48-28.008-31.12-31.192V264c0-13.232-10.768-24-24-24s-24,10.768-24,24v88H16V144h16v88  c0,13.232,10.768,24,24,24s24-10.768,24-24v-56.808C95.64,172,107.928,159.632,111.12,144H480V352z" data-original="#000000" class="" data-old_color="#000000" style="fill:#009BFA"/><polygon points="448,216 464,216 464,160 408,160 408,176 448,176 " data-original="#000000" class="" data-old_color="#000000" style="fill:#009BFA"/><polygon points="464,280 448,280 448,320 408,320 408,336 464,336 " data-original="#000000" class="" data-old_color="#000000" style="fill:#009BFA"/><polygon points="48,280 32,280 32,336 88,336 88,320 48,320 " data-original="#000000" class="" data-old_color="#000000" style="fill:#009BFA"/></g> </svg>
