<?xml version="1.0"?>
<svg xmlns="http://www.w3.org/2000/svg" xmlns:xlink="http://www.w3.org/1999/xlink" version="1.1" id="Capa_1" x="0px" y="0px" viewBox="0 0 512.365 512.365" style="enable-background:new 0 0 512.365 512.365;" xml:space="preserve" width="512px" height="512px" class="hovered-paths"><g><path style="fill:#2498F2" d="M343.832,400.345c-24.533-20.267-46.933-42.667-70.4-65.067c-3.2,1.067-5.333,3.2-8.533,4.267  l-29.867,19.2c-39.467,26.667-152.533-138.667-113.067-166.4l28.8-20.267c2.133-2.133,4.267-3.2,6.4-5.333  c-6.4-20.267-11.733-41.6-18.133-62.933c-11.733-34.133-25.6-67.2-38.4-101.333V1.412c-5.333-1.067-11.733-1.067-17.067,0  l-7.467,1.067c-92.8,50.133-74.667,105.6-74.667,105.6c59.733,184.533,121.6,275.2,267.733,393.6c0,0,44.8,37.333,125.867-29.867  l3.2-6.4c3.2-4.267,4.267-9.6,6.4-13.867C384.365,434.478,363.032,417.412,343.832,400.345z" data-original="#F3705A" class="" data-old_color="#F3705A"/><g>
	<path style="fill:#FFD600" d="M387.565,393.945c20.267,18.133,25.6,49.067,10.667,72.533l0,0l-146.133-118.4l12.8-7.467   c21.333-13.867,49.067-11.733,68.267,5.333L387.565,393.945z" data-original="#FFD15C" class="" data-old_color="#FFD15C"/>
	<path style="fill:#FFD600" d="M150.765,172.078l-11.733,8.533L83.565,1.412l0,0c27.733-4.267,53.333,10.667,62.933,37.333   l24.533,67.2C179.565,130.478,172.098,157.145,150.765,172.078z" data-original="#FFD15C" class="" data-old_color="#FFD15C"/>
</g><path style="fill:#2498F2" d="M512.365,30.212v146.133c0,16-12.8,29.867-29.867,29.867l-94.933-3.2l-99.2,75.733v-73.6h-6.4  c-16,0-29.867-12.8-29.867-29.867V30.212c0-16,12.8-29.867,29.867-29.867h200.533C499.565,0.345,512.365,13.145,512.365,30.212z" data-original="#66C6B9" class="" data-old_color="#66C6B9"/><g>
	<path style="fill:#FFD600" d="M472.898,50.478L472.898,50.478c0-7.467-5.333-12.8-12.8-12.8H304.365   c-7.467,0-12.8,5.333-12.8,12.8l0,0c0,7.467,5.333,12.8,12.8,12.8h155.733C467.565,63.278,472.898,56.878,472.898,50.478z" data-original="#FFFFFF" class="hovered-path active-path" data-old_color="#FFFFFF"/>
	<path style="fill:#FFD600" d="M472.898,102.745L472.898,102.745c0-7.467-5.333-12.8-12.8-12.8H304.365   c-7.467,0-12.8,5.333-12.8,12.8l0,0c0,7.467,5.333,12.8,12.8,12.8h155.733C467.565,115.545,472.898,110.212,472.898,102.745z" data-original="#FFFFFF" class="hovered-path active-path" data-old_color="#FFFFFF"/>
	<path style="fill:#FFD600" d="M472.898,156.078L472.898,156.078c0-7.467-5.333-12.8-12.8-12.8H304.365   c-7.467,0-12.8,5.333-12.8,12.8l0,0c0,7.467,5.333,12.8,12.8,12.8h155.733C467.565,168.878,472.898,163.545,472.898,156.078z" data-original="#FFFFFF" class="hovered-path active-path" data-old_color="#FFFFFF"/>
</g></g> </svg>
