<?xml version="1.0"?>
<svg xmlns="http://www.w3.org/2000/svg" xmlns:xlink="http://www.w3.org/1999/xlink" version="1.1" id="Capa_1" x="0px" y="0px" viewBox="0 0 496 496" style="enable-background:new 0 0 496 496;" xml:space="preserve" width="512px" height="512px" class=""><g><path style="fill:#FFD600" d="M232,200c0-43.44,21.688-81.76,54.776-104.896C261.832,66.296,225.088,48,184,48  c-75.112,0-136,60.888-136,136s60.888,136,136,136c32.208,0,61.76-11.256,85.056-29.968C246.16,266.904,232,235.112,232,200z" data-original="#F0BC5E" class="active-path" data-old_color="#F0BC5E"/><path d="M360,304c57.344,0,104-46.656,104-104S417.344,96,360,96s-104,46.656-104,104S302.656,304,360,304z M272.112,202.272  L288,206.248v44.192C278.36,236.728,272.576,220.16,272.112,202.272z M400,248v-72l16,12v79.832  c-4.904,4.056-10.288,7.528-16,10.456V264h-16v20.592c-5.16,1.464-10.496,2.504-16,3.008v-77.168l16-24V248H400z M336,200l16,12  v75.6c-5.504-0.496-10.84-1.536-16-3.008V200z M320,278.288c-5.712-2.928-11.096-6.4-16-10.456v-62.88l16-8V278.288z M432,250.44  v-62.16l13.44-8.96c1.616,6.648,2.56,13.544,2.56,20.68C448,218.768,442.048,236.136,432,250.44z M360,112  c35.568,0,66.2,21.248,80.064,51.68l-15.784,10.528l-34.24-25.672l-32,48l-29.184-21.896l-33.776,16.888l-21.856-5.464  C279.928,144.152,316.232,112,360,112z" data-original="#000000" class="" style="fill:#FFFFFF" data-old_color="#000000"/><path d="M496,200c0-74.992-61.008-136-136-136c-11.44,0-22.488,1.576-33.104,4.248C291.752,24.84,240,0,184,0  C82.536,0,0,82.544,0,184c0,101.464,82.536,184,184,184c44.08,0,86.28-15.824,119.6-44.4c5.312,2.432,10.752,4.632,16.4,6.376V352  h-16v16h16v88c0,22.056,17.944,40,40,40s40-17.944,40-40v-88h16v-16h-16v-22.024C455.528,312.856,496,261.072,496,200z M480,200  c0,66.168-53.832,120-120,120s-120-53.832-120-120S293.832,80,360,80S480,133.832,480,200z M48.184,282.48  C29.512,256.8,18.008,225.712,16.408,192H32v-16H16.408c1.6-33.712,13.112-64.808,31.776-90.48  c7.088,7.76,20.136,18.616,42.464,27.424C84.776,131.32,80.904,152.272,80.176,176H48v16h32.184  c0.72,23.728,4.6,44.672,10.472,63.056C68.32,263.864,55.272,274.72,48.184,282.48z M192,192h32.408  c-0.16,2.664-0.408,5.296-0.408,8c0,15.12,2.584,29.616,7.16,43.216c-12.232-1.784-25.384-2.744-39.16-3.04V192z M226.248,176H192  v-48.136c20.92-0.44,40.048-2.592,57.2-6.44C237.816,137.416,229.848,155.936,226.248,176z M192,111.864V22.432  c16.384,11.448,46.32,37.064,64.504,80.624C237.92,108.384,216.32,111.336,192,111.864z M176,111.896  c-26.848-0.584-48.032-4.104-64.664-8.904c18.224-44.112,48.2-69.48,64.664-80.76V111.896z M176,127.888V176H96.184  c0.712-21.776,4.272-40.992,9.632-57.856C124.04,123.48,147.088,127.288,176,127.888z M96.184,192H176v48.112  c-28.816,0.6-51.816,4.384-70.008,9.696C100.544,232.92,96.912,213.712,96.184,192z M176,256.104v89.512  c-16.344-11.432-46.168-37.024-64.424-80.68C128.168,260.168,149.28,256.688,176,256.104z M192,256.176  c16.744,0.368,32.336,1.888,46.488,4.56c3.272,6.512,7.024,12.712,11.256,18.584c-18.128,34.808-43.232,56.12-57.744,66.28  L192,256.176L192,256.176z M310.456,73.48c-14.392,5.656-27.584,13.664-39.104,23.608c-15.824-38.16-39.616-63.472-57.872-78.52  C251.024,25.16,285.024,44.304,310.456,73.48z M154.032,18.832c-18.416,15.2-42.304,40.696-57.904,78.976  c-21.656-8.664-32.824-19.144-37.736-24.984C82.872,45.184,116.232,25.68,154.032,18.832z M58.384,295.168  c4.92-5.84,16.08-16.32,37.736-24.984c15.6,38.288,39.496,63.784,57.912,78.984C116.232,342.32,82.872,322.808,58.384,295.168z   M213.536,349.336c14.488-11.992,32.48-30.392,47.24-56.632c8.168,8.736,17.448,16.368,27.648,22.72  C266.536,332.84,240.872,344.472,213.536,349.336z M384,456c0,13.232-10.768,24-24,24s-24-10.768-24-24v-88h48V456z M384,352h-48  v-18.248c7.808,1.392,15.8,2.248,24,2.248s16.192-0.856,24-2.248V352z" data-original="#000000" class="" style="fill:#FFFFFF" data-old_color="#000000"/></g> </svg>
